<svg xmlns="http://www.w3.org/2000/svg" viewBox="0 0 736.7 173.9"><path d="M712.6 162.5H42.4v-.6H712v-6.6H19.8v-6.6h708.7v-7.4H7.6v-.6h721.5v8.6H20.4v5.4h692.2zm-588.5-25.8h-.6v-6.2H29.7l-10 2.4v3.8h-.6v-4.3l10.6-2.5h94.4zm4.7-3.5h47.5v.6h-47.5zm-.9-3.3h48.5v.6h-48.5z"/><path d="M131.9 121.4h.6v8.9h-.6zm5 0h.6v8.9h-.6zm-45 0h.6v8.9h-.6zm5.1 0h.6v8.9H97zm45 0h.6v8.9h-.6zm5 0h.6v8.9h-.6zm5 0h.6v8.9h-.6zm5.1 0h.6v8.9h-.6zm5 0h.6v8.9h-.6zm5.1 0h.6v8.9h-.6zm5 0h.6v8.9h-.6zm17.2 0h.6v8.9h-.6zm5.1 0h.6v8.9h-.6z"/><path d="M209.5 136.7h-.6v-6.2H181v5.3h-.6v-5.9h29.1z"/><path d="M185.7 133.2h23.5v.6h-23.5zm15.1-17.4h.6v14.4h-.6z"/><path d="m191.2 117.8-59.1-8.4-26.9-14.5V77.3L102 72l16.1 2 3 4.1 2.8 12.6 18.3 11.4L190 110l15.3-1.9 4.4 6.8-18.5 2.9zm-58.9-9 58.9 8.4 17.5-2.8-3.7-5.7-15 1.9-47.8-7.9-18.6-11.6-2.9-12.8-2.8-3.7-14.6-1.8 2.6 4.3v17.4l26.4 14.3z"/><path d="m190 113.7-54.8-8.4L110.5 92V78l-1.4-4.7.6-.1 1.4 4.7v13.8l24.3 13.1 54.6 8.3 17.1-1.9.1.6zm-73.6-24.3h-.6v-10l-2.3-5.5.5-.2 2.4 5.7zm2.6-14.1h-.6v-6l-17.1-4.2-2.5 2.5-.4-.5 2.7-2.7 17.9 4.4z"/><path d="M98.6 67.1h.6v63.2h-.6zm6.3 50.1h58.9v.6h-58.9zm0-5.7h23v.6h-23zm0-5.3h11.5v.6h-11.5zm-8.3-12.9H96V77.4l-2.5 2.5v13.4h-.6V79.6l3.7-3.6z"/><path d="M93.5 93.3h-.6V77.4l-2.4 2.5v13.4h-.6V79.6l3.6-3.6z"/><path d="M90.5 130.2h-.6V77.5L87.4 80v7.7L84.1 91l-2.3 9.1-.1.1L62 114.6h-.1l-32.5 4.5h-10l-.1-.6 30.2-6.1 12.4 1.4v.1l19.4-14.2 2.3-9 3.2-3.2v-7.7l3.6-3.8.1 54.2zm-68.1-11.7h7l31-4.3-10.9-1.2-27.1 5.5z"/><path d="M30.5 130.2h-.6v-6.6l-10.2-2v-2.9h.6v2.4l10.2 2.1z"/><path d="M85.7 130.2h-.6v-22.6L62.7 120l-32.5 3.7-.1-.6 32.4-3.7 23.2-12.8zm-52-3.6h.6v3.6h-.6zm4.2 0h.6v3.6h-.6zm4.1 0h.6v3.6H42zm4.2 0h.6v3.6h-.6zm4.2 0h.6v3.6h-.6zm4.1 0h.6v3.6h-.6zm4.2 0h.6v3.6h-.6zm4.1 0h.6v3.6h-.6zm18.1 3.6h-.6v-10.3h-8.4v10.3h-.6v-10.9h9.6zm9.3-13h8.7v.6h-8.7zm1.9-19.6h4.8v.6h-4.8zm68.3 4.7h-.6v-4.5h-2.7v-9.9h-2.9v-2.6h-3.7v-3.4h-2.7v-2.2h-10.3v2.2h-2.9v15.6h-.6V81.3h2.9v-2.2h11.5v2.2h2.7v3.4h3.7v2.6h2.9v9.9h2.7zm-8.1-10.6h.6V94h-.6zm-3.6 0h.6V94h-.6zm-3.6 0h.6V94h-.6zm3.6-3.8h.6v2.3h-.6zm-3.6 0h.6v2.3h-.6zm3.6 7.7h.6v2.3h-.6zm-3.6 0h.6v2.3h-.6zm-3.1 0h.6v2.3h-.6zm-2.8 0h.6v2.3h-.6zm2.8-3.9h.6V94h-.6zm-2.8 0h.6V94h-.6zm2.8-3.9h.6v2.3h-.6zm-2.8 0h.6v2.3h-.6zm2.8-3.9h.6v2.3h-.6zm3.1 0h.6v2.3h-.6zm-5.9 0h.6v2.3h-.6zm25.6 7.5h1.4v.6h-1.4zm3.6 0h1.4v.6h-1.4zm-3.6 3.3h1.4v.6h-1.4zm3.6 0h1.4v.6h-1.4zm3.6 0h1.4v.6H172zm-3.6 2.2h1.4v.6h-1.4zm3.6 0h1.4v.6H172zm-3.6 2.2h1.4v.6h-1.4zm-3.6 0h1.4v.6h-1.4zm10.8 0h1.4v.6h-1.4zm0-2.2h1.4v.6h-1.4zm-3.6 2.2h1.4v.6H172zm-3.6 2.3h1.4v.6h-1.4zm3.6 0h1.4v.6H172zm18.4-10.2h-16.5v-2.6h-13.8V88h14.4v2.6h15.9z"/><path d="M169.4 88.3h-.6v-7.5h21.6v.6h-21zm18.6 21.6h-.6v-8.8h9.1v-3.6h.6v4.2H188z"/><path d="M189.3 101.4h-.6v-4l1.4-1.5V76.5h4.6v-5.2h21.7v5.6l2.3 2.3v12.9h-.6V79.5l-2.3-2.3v-5.3h-20.5v5.2h-4.6v19.1l-1.4 1.4z"/><path d="M208.7 90.9h.6V93h-.6zm-3.6 0h.6V93h-.6zm-3.6 0h.6V93h-.6zm-3.6 0h.6V93h-.6zm10.8-4.4h.6v2.1h-.6zm-3.6 0h.6v2.1h-.6zm-3.6 0h.6v2.1h-.6zm-3.6 0h.6v2.1h-.6zm10.8-4.4h.6v2.1h-.6zm-3.6 0h.6v2.1h-.6zm-3.6 0h.6v2.1h-.6zm-3.6 0h.6v2.1h-.6zm10.8-4.4h.6v2.1h-.6zm-1.9-4h.6v2.1h-.6zm2.4 0h.6v2.1h-.6zm2.4 0h.6v2.1h-.6zm-6.5 4h.6v2.1h-.6zm-3.6 0h.6v2.1h-.6zm-3.6 0h.6v2.1h-.6zm3.2-1.8h-3.7v-2.3h3.7v2.3zm-3.1-.6h2.5v-1.1H198v1.1zm7.7.6H202v-2.3h3.7v2.3zm-3.1-.6h2.5v-1.1h-2.5v1.1zm26.1 61.1h-.6V95.9h-14v3.2h-8.5l-4.5-3.2H194l-3.5.5-.1-.6 3.5-.5h7.4l4.5 3.2h7.7v-3.2h15.2z"/><path d="M214 136.7h-.6V104h-8v-.6h8.6zm3.3-33.9h.6v1.7h-.6zm2.8 0h.6v1.7h-.6zm-2.8 4.5h.6v1.7h-.6zm2.8 0h.6v1.7h-.6zm-2.8 4.5h.6v1.7h-.6zm2.8 0h.6v1.7h-.6zm-2.8 4.5h.6v1.7h-.6zm2.8 0h.6v1.7h-.6zm-2.8 4.5h.6v1.7h-.6zm2.8 0h.6v1.7h-.6zm-2.8 4.5h.6v1.7h-.6zm2.8 0h.6v1.7h-.6zm-2.8 4.5h.6v1.7h-.6zm2.8 0h.6v1.7h-.6zm2.8-34.2h-.6V81.8h7.4V75h-8.8v-.6h9.4v8h-7.4z"/><path d="M244.3 82.4H230v-.6h13.7v-8.4h23.1v6.1h-.6V74h-21.9z"/><path d="M265 102h-.6V88.9h16.5v-9.4h-22.5v9.7h-.6V78.9h23.7v10.6H265z"/><path d="M277 79.2h-.6v-9.9h4.8v.6H277z"/><path d="M279.2 69.6h-.6v-6.4h8.6v3.1h-.6v-2.5h-7.4zm-52 16.3h.6v6h-.6zm3.7 0h.6v7.4h-.6zm4.1 0h.6v7.4h-.6zm4.1 0h.6v7.4h-.6zm5.2 14.9-6.1-2.8h-4.7v2.7h-5.1v-.6h4.5v-2.7h5.5l5.3 2.5V82.1h.6z"/><path d="M239.7 136.4h-.6v-14.6h6.9v-21.1h-2v-.6h2.6v22.3h-6.9zm3.5-11.1h.6v11.1h-.6zm3.9 0h.6v11.1h-.6zm3.8 0h.6v11.1h-.6zm3.9 0h.6v11.1h-.6zm3.8-9.3h.6v20.4h-.6z"/><path d="M246.3 121.8h12.6v.6h-12.6zm-70-37.4h14.1v.6h-14.1zm52.1 20.7h9v.6h-9zm0 4.1h9v.6h-9zm0 8.9h6.9v.6h-6.9zm0 8.6h6.9v.6h-6.9zm22.6-8.4h-4.7v-.6h4.1v-1.6c0-.1 3.2-6.5 11.9-9.1.2-.5.8-2 2.8-2s2.9 1.5 3.2 1.9c1.1.2 7.5 2 11.6 9.1l.2.4h-21.3v-.4h20.3c-4.3-7.1-11-8.4-11-8.4h-.2l-.1-.2c0-.1-.8-1.7-2.7-1.7s-2.2 1.6-2.3 1.7v.2l-.2.1c-8.1 2.3-11.4 8.1-11.7 8.8l.1 1.8z"/><path d="M483.6 136.4h-.6v-19.8H279.7v-.6h203.9z"/><path d="M264.6 121.1h218.7v.6H264.6z"/><path d="M308.9 121.6h.6v14.8h-.6zm21.8 3.7h.6v11.1h-.6zm24 0h.6v11.1h-.6zm24 0h.6v11.1h-.6zm24 0h.6v11.1h-.6zm24 0h.6v11.1h-.6zm24 0h.6v11.1h-.6zm24 0h.6v11.1h-.6zm-161.3.7h2.1v.6h-2.1zm5.3 0h2.1v.6h-2.1zm5.3 0h2.1v.6H324zm12.6 0h2.1v.6h-2.1zm5.5 0h2.1v.6h-2.1zm5.4 0h2.1v.6h-2.1zm13 0h2.1v.6h-2.1zm5.5 0h2.1v.6H366zm5.4 0h2.1v.6h-2.1zm13 0h2.1v.6h-2.1zm5.5 0h2.1v.6h-2.1zm5.4 0h2.1v.6h-2.1zm13 0h2.1v.6h-2.1zm5.5 0h2.1v.6h-2.1zm5.4 0h2.1v.6h-2.1zm13 0h2.1v.6h-2.1zm5.4 0h2.1v.6h-2.1zm5.5 0h2.1v.6h-2.1zm13 0h2.1v.6h-2.1zm5.4 0h2.1v.6h-2.1zm5.5 0h2.1v.6H467zm-184.6-15.4h.6v5.6h-.6zm24 0h.6v5.6h-.6zm24 0h.6v5.6h-.6zm24 0h.6v5.6h-.6zm24 0h.6v5.6h-.6zm24 0h.6v5.6h-.6zm24 0h.6v5.6h-.6zm14.9 5.7h-.6v-8.4h-171v-.6h171.6z"/><path d="M330 107.6h-.6V99h-11.9v8.6h-.6v-9.2H330zm-71.9-1.7h-3.3V93.6H244V93h11.4v12.3h2.7zm10.5-13.8h3.5v.6h-3.5zm6.3 0h3.5v.6h-3.5zm6.4 0h3.5v.6h-3.5zm6.3 0h3.5v.6h-3.5zm-19 3.5h3.5v.6h-3.5zm6.3 0h3.5v.6h-3.5zm6.4 0h3.5v.6h-3.5zm6.3 0h3.5v.6h-3.5zm-19 3.5h3.5v.6h-3.5zm6.3 0h3.5v.6h-3.5zm6.4 0h3.5v.6h-3.5zm6.3 0h3.5v.6h-3.5zm-19 3.5h3.5v.6h-3.5zm6.3 0h3.5v.6h-3.5zm6.4 0h3.5v.6h-3.5zm6.3 0h3.5v.6h-3.5zm-23.1-19.9h5.2v.6h-5.2zm7.1 0h2.9v.6h-2.9zm-7.1 2.9h5.2v.6h-5.2zm7.1 0h2.9v.6h-2.9zm-23.9-8.3h2.3v.6h-2.3zm5 0h2.3v.6h-2.3zm-5 3.6h2.3v.6h-2.3zm5 0h2.3v.6h-2.3zm-5 3.6h2.3v.6h-2.3zm5 0h2.3v.6h-2.3zm-5 3.6h2.3v.6h-2.3zm5 0h2.3v.6h-2.3zm60.1 13.6h-18.3V89.5h-13.3v-.6h13.9v12.2h17.7z"/><path d="M294.8 94.7h19.6v.6h-19.6zm17.4-3.5h-.6V72.7H303v3.4h-3.5v15.1h-.6V75.4h3.5v-3.3h9.8z"/><path d="M305.6 77.3h6.4v.6h-6.4zm0 3.4h6.4v.6h-6.4zm0 3.5h6.4v.6h-6.4zm0 3.5h6.4v.6h-6.4zm10-8.2h-.6V68.9h-6.5v-5.1h-8.9v6.1h-13.4c-3.9 3.9-4.6 9.3-4.6 9.4l-.6-.1c0-.2.8-5.8 4.9-9.8l.1-.1h13v-6.1h10v5.1h6.5l.1 11.2z"/><path d="M309.1 63.5h-.6v-3.4h11v.6h-10.4zm-20.8 6.1h.6v16.3h-.6zm6.2 0h.6v16.3h-.6z"/><path d="M371.3 107.6h-.6V17.9h-42.1l-8.8 3.6v77.2h-.6V21.1l9.3-3.8h42.8z"/><path d="m319.6 29.1-.2-.6 8.7-3H371v.6h-42.8z"/><path d="M328.6 17.6h.6v74.3h-.6zm6.6 8.2h.6v75.5h-.6zm4.4 0h.6v75.5h-.6zm4.4 0h.6v75.5h-.6zm13.1 0h.6v75.5h-.6zm4.5 0h.6v75.5h-.6zm4.4 0h.6v75.5h-.6zm-33.7-4h2.2v.6h-2.2zm4.6 0h2.2v.6h-2.2zm4.6 0h2.2v.6h-2.2zm14.7 0h2.2v.6h-2.2zm4.6 0h2.2v.6h-2.2zm4.5 0h2.2v.6h-2.2zm-27-4.2h-.6v-5.3l-4 1.2v4.1h-.6v-4.5l5.2-1.7z"/><path d="M352.1 17.6h-.6v-5.4H338v-.6h14.1zm40.2 69h-6.8V86h6.2v-4.3H371v-.6h21.3zM371 94h17.3v.6H371zm0 4.5h9.4v.6H371zm13.1 9.1h-.6v-3.7l4.3-4.3h10.5l4.2 4.2h14.7v.6h-15l-4.2-4.2h-9.9l-4 4z"/><path d="M391.2 99.9h-.6v-9.1h34.1v.6h-33.5z"/><path d="M417.5 91.1h-.6v-6.2h-18.2v-.6h18.8zm-23 0h-.6v-4.5H392V86h2.5zm94.7-2.7h-.6v-4.1h-3.5l-4.5-4.4h-5l-3.8-3.8h-29.6l-3.5 3.6v4.5h-7.3v3.7h-5.5v-4l-6.8-2.9h-16.5l-7.4-3.7h-6.6v4.1h-.6v-4.7h7.4l7.3 3.7h16.6l7.2 3.1v3.8h4.3v-3.7h7.3v-4.2l3.9-3.9h30.1l3.8 3.8h5l4.4 4.5h3.9z"/><path d="M443.1 79.3h32.7v.6h-32.7zm39.2 32.6h-.6V88.8l-2.4-2.4h-15.5l-2.6 2.7h-20.5v-2.7l-2.6-2.3.5-.4 2.7 2.5v2.3h19.6l2.7-2.7h15.9l2.8 2.8zM444.5 84h3v.6h-3zm4.8 0h3v.6h-3zm4.8 0h3v.6h-3zm12.5 32.3h-.6V95.8h-43v11.8h-.6V95.2h44.2z"/><path d="M429 92.3h.6v3.2h-.6zm4.5 0h.6v3.2h-.6zm4.6 0h.6v3.2h-.6zm4.5 0h.6v3.2h-.6zm4.5 0h.6v3.2h-.6zm4.5 0h.6v3.2h-.6zm4.6 0h.6v3.2h-.6zm4.5 0h.6v3.2h-.6zm-33.5 7.6h.6v7.7h-.6zm5.8 0h.6v7.7h-.6zm5.7 0h.6v7.7h-.6z"/><path d="M425.5 102.2H447v.6h-21.5zm44.9-6.7h.6v20.7h-.6zm3.6 0h.6v20.7h-.6zm3.6 0h.6v20.7h-.6zm11.4 21.8h-.6v-10.1l3.8-3.7h2.2V95l-2.4-2.4h-22.9V92h23.2l2.7 2.7v9.4h-2.6l-3.4 3.4z"/><path d="M499.7 117.3h-.6v-13.2h-4.4v-.6h5z"/><path d="M503 136.4h-.6V125h28.5v-24.5H522l-3.4-3.4h-15.1l-3.8 3.9v2.8h-.6v-3.1l4.2-4.2h15.5l3.4 3.4h9.3v25.7H503z"/><path d="M488.6 136.4h-.6v-14.5h15v4.4h-.6v-3.8h-13.8zm51.9 0h-.7v-8.2l-2.6-2.6h-6v-.6h6.2l3.1 3z"/><path d="M540.5 128.1h-.7v-6l2.9-2.9h39.8l-4.7 4.8h-30.4v-.6h30.1l3.6-3.6h-38.2l-2.4 2.5z"/><path d="M585.1 136.4h-.6v-14.1l-2.9-2.5.4-.5 3.1 2.8z"/><path d="m585 122.4-.4-.4 6.2-6.6v-6.7l-6.1-4.6h-8.6l-7.2 4.2v11.2h-.6V108l7.7-4.5h8.9l6.5 4.9v7.2z"/><path d="M568.6 116.3h16.2v.6h-16.2zm0-4.2h16.2v.6h-16.2zm0-4.3h16.2v.6h-16.2zm-17.7 11.7h-.6v-19h21v6.2h-.6v-5.6h-19.8z"/><path d="m557 101.1-5.9-5.9h-19.2l-5.4 5.3-.4-.4 5.6-5.5h19.7l6 6zm-30.4-6.9h-27.7v-.6H526v-4.8h6.2l2.8-2.7h16.6v.6h-16.4l-2.7 2.7h-5.9z"/><path d="M552.2 95.5h-.6V64.7h2v-5.9h16.3V62l2.8 2.8v17h12.4v7.9h-.6v-7.3h-12.4V65l-2.8-2.8v-2.8h-15.1v5.9h-2z"/><path d="M576.2 90.4h-12.8l-2.9-3.9V65.4l-2.4-2.4v-3.9h.6v3.7l2.4 2.4v21.1l2.6 3.5h12.5zM555.1 68h.6v23.4h-.6z"/><path d="M560.8 65h6.5v.6h-6.5zm0 4.2h6.5v.6h-6.5zm0 4.2h6.5v.6h-6.5zm0 4.2h6.5v.6h-6.5zm0 4.3h6.5v.6h-6.5zm0 4.2h6.5v.6h-6.5zm-5.8 12-.4-.4 3.7-3.6h14v.6h-13.8zm-18.3-8.3H548v.6h-11.3zm61.3 25.7h-.6v-12.8l-3.5-3.4v-3.5l-5.5-5.5-4.6 4.7v4.1l-2.5 2.5v2.2h-.6v-2.5l2.5-2.5v-4l5.2-5.3 6.1 6.1V99l3.5 3.5z"/><path d="M661.1 136.4h-.6v-13.5l-7-7.1h-62.4v-.6h62.6l7.4 7.4z"/><path d="M623 123.5h37.9v.6H623zm.3 12.9h-.6V131l-9.3-4.8h-20.1l-8.3 4.4-.3-.5 8.4-4.5h20.5l9.7 5z"/><path d="M600 136.4h-.6V131l-6.4-4.8.4-.5 6.6 5z"/><path d="M599.7 130.5H623v.6h-23.3zm41.7-15h-.6v-5h-19.7V94.4l-2-4.8h-13.8l-2.3 5.3v20.6h-.6V94.8l2.5-5.8h14.6l2.2 5.4v15.5h19.7z"/><path d="M615.5 111.5h-.6V94.4l-1.7-5 .6-.2 1.7 5.2zm-12.6-17h7.3v.6h-7.3zm0 4.3h7.3v.6h-7.3zm0 4.2h7.3v.6h-7.3zm0 4.3h7.3v.6h-7.3zm0 4.3h7.3v.6h-7.3zm-13.6-14.8h1.7v.6h-1.7zm5.1 7h.6v3.8h-.6zm0 4.5h.6v3.8h-.6zm79.8 28.1h-.6v-20.6h-5l-5.6-5.3h-8.3l-4.9 5.2-.4-.4 5-5.4h8.9l5.5 5.3h5.4zm-9.3-17.2h5.6v.6h-5.6zm0 3.8h5.6v.6h-5.6zm0 3.7h5.6v.6h-5.6zm0 3.8h5.6v.6h-5.6zm0 3.7h5.6v.6h-5.6zm-173.3-8.6h7.8v.6h-7.8zm.3 5.6h.6v3.9h-.6zm3.6 0h.6v3.9h-.6zm7.2-29.2h1.4v1.4h-1.4zm3.5 0h1.4v1.4h-1.4zm6.9 0h1.4v1.4h-1.4zm-6.9 3.2h1.4v1.4h-1.4zm6.9 0h1.4v1.4h-1.4zm3.8 0h1.4v1.4h-1.4zm3.8 0h1.4v1.4h-1.4zm-3.8 6.3h1.4v1.4h-1.4zm3.8 0h1.4v1.4h-1.4zm-3.8 3.2h1.4v1.4h-1.4zm3.8 0h1.4v1.4h-1.4zm3.4-3.2h1.4v1.4h-1.4zm0 3.2h1.4v1.4h-1.4zm67.5 5.1h1.4v1.4h-1.4zm3 0h1.4v1.4h-1.4zm7.5 0h1.4v1.4h-1.4zm3 0h1.4v1.4h-1.4zm2.9 0h1.4v1.4H608zm6 0h1.4v1.4H614zm3 0h1.4v1.4H617zm2.9 0h1.4v1.4h-1.4zm9.6 0h1.4v1.4h-1.4zm3 0h1.4v1.4h-1.4zm3 0h1.4v1.4h-1.4zm3.2 0h1.4v1.4h-1.4zm-9.2 8h1.4v1.4h-1.4zm3 0h1.4v1.4h-1.4zm3 0h1.4v1.4h-1.4zm3.2 0h1.4v1.4h-1.4zm5.6 3h1.4v1.4h-1.4zm3 0h1.4v1.4h-1.4zm2.9 0h1.4v1.4h-1.4zm3.2 0h1.4v1.4h-1.4zm-5.2-11h1.4v1.4h-1.4zm3.2 0h1.4v1.4h-1.4zm-123.9-14.6h1.4v1.4h-1.4zm0 6.3h1.4v1.4h-1.4zm-6.8-3.1h1.4v1.4h-1.4zm3.4 0h1.4v1.4h-1.4zm3.4 0h1.4v1.4h-1.4zm-17.9-3.2h1.4v1.4h-1.4zm-3.4 3.2h1.4v1.4h-1.4zm6.9 0h1.4v1.4h-1.4zm-3.5 0h1.4v1.4h-1.4zm3.5 12.6h1.4v1.4h-1.4zm-3.5 0h1.4v1.4h-1.4zm-3.4-9.5h1.4v1.4h-1.4zm0 3.2h1.4v1.4h-1.4zm6.9 0h1.4v1.4h-1.4zm-10.4-6.3h1.4v1.4h-1.4zm0 3.1h1.4v1.4h-1.4zm0 3.2h1.4v1.4h-1.4zm3.5 3.1h1.4v1.4h-1.4zm3.4 0h1.4v1.4h-1.4zm0-6.3h1.4v1.4h-1.4zm-3.7 16.3h.6v2.6h-.6zm5 0h.6v2.6h-.6zm4.9 0h.6v2.6h-.6zm5 0h.6v2.6h-.6zm5 0h.6v2.6h-.6zm4.9 0h.6v2.6h-.6zm5 0h.6v2.6h-.6zm9.9-.4h.6v3.8h-.6zm4.8 0h.6v3.8h-.6zm4.8 0h.6v3.8h-.6zm4.9 0h.6v3.8h-.6zm4.8 0h.6v3.8h-.6zm4.8 0h.6v3.8h-.6zm4.9 0h.6v3.8h-.6zm107.8-6.7h.6v15.8h-.6zm4.8 2h.6v13.8h-.6zm4.9 2h.6v11.8h-.6zm4.8 2h.6v9.8h-.6zm4.8 2h.6v7.8h-.6zm4.9 2h.6v5.8h-.6zm4.8 2h.6v3.8h-.6zm4.8 2h.6v1.8h-.6zm-207.8-2h.6v2.6h-.6zm4.9 0h.6v2.6h-.6zm5 0h.6v2.6h-.6zm5 0h.6v2.6h-.6zm4.9 0h.6v2.6h-.6zm5 0h.6v2.6h-.6zm1.5-30h.6v3.9h-.6zm2.9 0h.6v3.9h-.6zm2.9 0h.6v3.9h-.6zm2.9 0h.6v3.9h-.6zm2.8 0h.6v3.9h-.6zm-11.5 6.4h.6v7h-.6zm2.9 0h.6v7h-.6zm2.9 0h.6v7h-.6zm2.9 0h.6v7h-.6zm2.8 0h.6v7h-.6zm8.3-5.3h.6v3.2h-.6zm4.6 0h.6v3.2h-.6zm4.7 0h.6v3.2h-.6zm-9.3 4.8h.6v3.2h-.6zm4.6 0h.6v3.2h-.6zm4.7 0h.6v3.2h-.6zm-9.3 4.8h.6v3.2h-.6zm4.6 0h.6v3.2h-.6zm4.7 0h.6v3.2h-.6zm-297.3 13.7h3.2v2.6h-3.2zm6.8 0h3.2v2.6h-3.2zm6.9 0h3.2v2.6h-3.2zm6.8 0h3.2v2.6H287zm6.9 0h3.2v2.6h-3.2zm6.8 0h3.2v2.6h-3.2z"/><path d="m716.9 130.2-.5-1.7c0-.1-4.6-14.9-18-14.9-9 0-18 .3-19.4.4l-5.4 13.3v-3.9l4.4-10.9h.2l38.2-.8c.3 0 .3 0 .4 6.9l.1 9.8v1.8zm-18.5-17.1c11.3 0 16.4 10.2 18 13.9l-.2-14.8-37.8.8-4.3 10.6v1.1l4.7-11.2h.2s9.8-.4 19.4-.4z"/><path d="M694.2 79.8s.5.7.5.8c-.1 0-.9-.4-1.1-.4.2.2 1.4.9 1.7 1.4-.2.2-.4.3-.7.6.3.1.5.1.6.2.2.1.3.2.4.3-.8.4-.1.8-.2 1.3v.2c.1.4.2.8.2 1.3.1.4 0 .5-.2.5h-.2c-.3 0-.5-.1-.8-.1s-.5 0-.8.2l-1.1.6-1.1.9c-.1.1-.2.2-.3.2-.5 0-.8.3-1.1.6l-2.4 2.5c-.1.1-.2.2-.3.2s-.1 0-.2-.2l-.4-.4c-.1-.2-.5.1-.4.4.2.3.6.5.4 1 0 .1.1.2.1.3.1.2.3.4.4.5-.1.2-.1.3-.1.4.1.1.2.1.3.1h.2c0 .1 0 .3.1.4h.1c.1 0 .1 0 .2-.1V93c.1.2.2.3.3.4 1.2 1.7 2.4 3.4 3.9 4.9.2.2.2.7.2 1l-.1.1-.8.3c-.4.1-.9 0-1.3.1-.5.1-.9.2-1.3.4-1.1.6-1.9 1.4-2.4 2.6 0 .1-.2.2-.3.2-.4 0-.7.1-1.1.1h-.3c-.7 0-1.5.7-1.5 1.5-.1 1.1.1 2.1.9 3 1 1.1 1.9 2.2 2.5 3.6.1.3.1.6.2.9l8 .2s.4-.4.4-.5c-.9 0-1.6-.6-2.3-1.1l-1.1-.9c-.3-.3-.5-.6-.8-.9.3-.1.6-.3 1-.4.7-.2 1.3-.5 1.9-1.1.3-.3.8-.5 1.1-.8a.78.78 0 0 0 .4-.4c.1-.1-.1-.3-.1-.4-.1-.2-.1-.3-.2-.5l2.1-.6c.5.5.3 1 .2 1.6-.1 0 0 .3.2.4s.6.1.8.1c.3 0 .6.1.8.2.2 0 .3.1.5.1a1.08 1.08 0 0 0 .7-.3c.1-.1.1-.2.2-.3 0-.1 0-.2-.1-.2s-1.1-.2-1.2-.4a6.05 6.05 0 0 0 0-1.9c0-.1.1-.3.2-.3l2-.9c.1 0 .2-.1.3-.1.1-.1.2-.1.3-.1.2 0 .3.1.5.4l.7 1.4c.1.2.2.3.3.5.6.7.9 1.6 1.4 2.3.5.6.9 1.3 1.1 2.1.1.3.1.5.2.8.1.4.2.6.5.6.1 0 .2 0 .4-.1v.8h2.1v-.1c-.2-.3-.4-.7-.7-.9-.2-.2-.5-.3-.7-.5-.3-.3-.5-.7-.7-1.1-.3-.6-.5-1.2-.7-1.9l-.6-1.4-.8-3.3c-.1-.3-.1-.7.1-.9a.76.76 0 0 0 .2-.4c0-.6.5-.7.9-.9.2-.1.4-.1.5-.1.2 0 .3.2.5.6 0 .1.1.2.1.2.2.4.4.8.2 1.3 0 .1 0 .2.1.2.2.3 0 .3-.2.4-.3.1-.6.2-.8.4.1.2.2.4.3.5l.6 1.1c.1.1.1.2.2.2s.1 0 .2-.1l.6-.9c.3-.5.5-1.1.7-1.6.1-.2 0-.4 0-.5-.2-.5-.5-.9-.7-1.4-.1-.2-.2-.5-.3-.7-.1-.4-.2-.7-.4-1s-.3-.4-.6-.4c-.1 0-.3 0-.5.1l-1.4.3v-.3l-.5-2.6c-.1-.4.1-.6.1-.9 0-.1.3-.1.5-.1h.2v-.4c.2.2.5.2.7.2.1 0 .3 0 .3-.1.2-.1.3-.9.3-1.1l-.5-2.4c-.1-.4 0-.8-.2-1.2-.2-.3 0-.7-.4-1 0 0 0-.2.1-.2.3-.3.3-.8-.1-1-.3-.2-.6-.5-.9-.7h-.6c-.1 0-.2 0-.3-.1-.2-.1-.3-.4-.5-.8 0 .3-.1.5-.1.6s0 .2-.1.3c-.3.1-.6.3-.9.3-.7.1-1.4.5-1.8 1.1-.5.7-1 1.4-1.1 2.3 0 .3-.2.5-.2.8h-.1c-.1-.2-.2-.5-.3-.7s0-.5-.1-.7c0-.2-.1-.3.1-.5.1 0 .1-.4 0-.4-.3-.2-.3-.5-.5-.8-.1-.2-.3-.4-.6-.5-.3-.2-.3-.5-.2-.8.2-.5-.1-.9.2-1.4 0 0 .2-.1.2-.2-.3-.6-.1-.9-.3-1.5 0-.1-.1-.4-.1-.5-.2-.4-.5-.3-.5-.6 0-.1-.1-.1-.2-.2-.6-.5-1-1.2-1.5-1.7-.4-.2-1.4-1-1.4-1zm1 32.4z" fill="none" stroke="#000" stroke-width=".5" stroke-miterlimit="10"/><path d="m690.7 90.6-.2 2.3c-.1.7.2 1.2.8 1.5.3.2.4.4.4.7.1.4.1.7.2 1.1v.1a3.04 3.04 0 0 1-.5-.7l-1.5-2.1c-.2-.3-.5-.6-.7-.9-.1-.1-.3-.4-.1-.6.1-.1 1.6-1.4 1.6-1.4zm.5-.9c-.7.4-1.2.7-1.7 1.1-.3.2-.8.7-.9.9-.2.3-.2.7.1 1l2.3 3.2 1.5 1.9h.1v-.5l-.4-2.2c-.1-.5-.3-.8-.7-1.1-.4-.2-.6-.5-.5-1l.2-3.3zm-4.5 14.6c-.3.6-.3 1.1-.1 1.7.1.4.6.6.9.8.1.1.2.1.2.1.1 0 .2-.1.3-.2l.3-.3c-.8-.5-1.6-1-1.6-2.1zm12.4-11.9c-.1.1-.3.2-.3.4s-.1.4 0 .6a1.44 1.44 0 0 0 .2.3c.1 0 .3-.2.3-.3.1-.2.2-.6.2-.8-.1-.1-.2-.2-.4-.2zm5.9 1c-.4.4-.3.9.1 1.3 0-.5 0-.9-.1-1.3z"/></svg>